<svg width="512" height="512" viewBox="0 0 512 512" fill="none" xmlns="http://www.w3.org/2000/svg">
<path d="M32 128C32 74.9807 74.9807 32 128 32H384C437.019 32 480 74.9807 480 128V384C480 437.019 437.019 480 384 480H128C74.9807 480 32 437.019 32 384V128Z" fill="#f5832c" id="id_101"></path>
<path fill-rule="evenodd" clip-rule="evenodd" d="M128 32C74.9807 32 32 74.9807 32 128V368C32 412.183 67.8172 448 112 448H368C412.183 448 448 412.183 448 368V112C448 67.8172 412.183 32 368 32H128Z" fill="#525252" id="id_102"></path>
<path fill-rule="evenodd" clip-rule="evenodd" d="M152.975 109.279C163.318 105.4 174.846 110.641 178.724 120.983L255.998 327.045L333.271 120.983C337.149 110.641 348.678 105.4 359.02 109.279C369.362 113.157 374.603 124.685 370.724 135.028L274.724 391.028C271.797 398.834 264.335 404.005 255.998 404.005C247.661 404.005 240.198 398.834 237.271 391.028L141.271 135.028C137.393 124.685 142.633 113.157 152.975 109.279Z" fill="white" id="id_103"></path>
</svg>